<?xml version="1.0" encoding="UTF-8" standalone="no"?><svg xmlns="http://www.w3.org/2000/svg" xmlns:xlink="http://www.w3.org/1999/xlink" contentStyleType="text/css" height="316px" preserveAspectRatio="none" style="width:381px;height:316px;background:#FFFFFF;" version="1.1" viewBox="0 0 381 316" width="381px" zoomAndPan="magnify"><defs/><g><!--MD5=[b6dcce5e5ef3c84b0b048d11301373dd]
class Game--><g id="elem_Game"><rect codeLine="1" fill="#F1F1F1" height="295.3242" id="Game" rx="2.5" ry="2.5" style="stroke:#181818;stroke-width:0.5;" width="360" x="7" y="7"/><ellipse cx="163.25" cy="23" fill="#ADD1B2" rx="11" ry="11" style="stroke:#181818;stroke-width:1.0;"/><path d="M166.2231,28.6431 Q165.6421,28.9419 165.0029,29.0913 Q164.3638,29.2407 163.6582,29.2407 Q161.1514,29.2407 159.8315,27.5889 Q158.5117,25.937 158.5117,22.8159 Q158.5117,19.6865 159.8315,18.0347 Q161.1514,16.3828 163.6582,16.3828 Q164.3638,16.3828 165.0112,16.5322 Q165.6587,16.6816 166.2231,16.9805 L166.2231,19.7031 Q165.5923,19.1221 164.9988,18.8523 Q164.4053,18.5825 163.7744,18.5825 Q162.4297,18.5825 161.7449,19.6492 Q161.0601,20.7158 161.0601,22.8159 Q161.0601,24.9077 161.7449,25.9744 Q162.4297,27.041 163.7744,27.041 Q164.4053,27.041 164.9988,26.7712 Q165.5923,26.5015 166.2231,25.9204 Z " fill="#000000"/><text fill="#000000" font-family="sans-serif" font-size="14" lengthAdjust="spacing" textLength="39" x="183.75" y="28.291">Game</text><line style="stroke:#181818;stroke-width:0.5;" x1="8" x2="366" y1="39" y2="39"/><text fill="#000000" font-family="sans-serif" font-size="14" lengthAdjust="spacing" textLength="85" x="13" y="56.5352">Board board</text><text fill="#000000" font-family="sans-serif" font-size="14" lengthAdjust="spacing" textLength="115" x="13" y="73.0234">string moveState</text><text fill="#000000" font-family="sans-serif" font-size="14" lengthAdjust="spacing" textLength="192" x="13" y="89.5117">Coordinate selectedPosition</text><text fill="#000000" font-family="sans-serif" font-size="14" lengthAdjust="spacing" textLength="124" x="13" y="106">boolean gameEnd</text><line style="stroke:#181818;stroke-width:0.5;" x1="8" x2="366" y1="112.9531" y2="112.9531"/><text fill="#000000" font-family="sans-serif" font-size="14" lengthAdjust="spacing" textLength="147" x="13" y="130.4883">void startGameLoop()</text><text fill="#000000" font-family="sans-serif" font-size="14" lengthAdjust="spacing" textLength="92" x="13" y="146.9766">void Update()</text><text fill="#000000" font-family="sans-serif" font-size="14" lengthAdjust="spacing" textLength="155" x="13" y="163.4648">void grabInputEvents()</text><text fill="#000000" font-family="sans-serif" font-size="14" lengthAdjust="spacing" textLength="348" x="13" y="179.9531">void onMouseEvent(string event, MouseEvent data)</text><text fill="#000000" font-family="sans-serif" font-size="14" lengthAdjust="spacing" textLength="230" x="13" y="196.4414">void onKeyboardEvent(string key)</text><text fill="#000000" font-family="sans-serif" font-size="14" lengthAdjust="spacing" textLength="122" x="13" y="212.9297">void placePawns()</text><text fill="#000000" font-family="sans-serif" font-size="14" lengthAdjust="spacing" textLength="121" x="13" y="229.418">void placeRooks()</text><text fill="#000000" font-family="sans-serif" font-size="14" lengthAdjust="spacing" textLength="131" x="13" y="245.9063">void placeKnights()</text><text fill="#000000" font-family="sans-serif" font-size="14" lengthAdjust="spacing" textLength="132" x="13" y="262.3945">void placeBishops()</text><text fill="#000000" font-family="sans-serif" font-size="14" lengthAdjust="spacing" textLength="131" x="13" y="278.8828">void placeQueens()</text><text fill="#000000" font-family="sans-serif" font-size="14" lengthAdjust="spacing" textLength="117" x="13" y="295.3711">void placeKings()</text></g><!--MD5=[ec0b101b100c70475bad78a77a40cbe8]
@startuml
class Game {
Board board
string moveState
Coordinate selectedPosition
boolean gameEnd
void startGameLoop()
void Update()
void grabInputEvents()
void onMouseEvent(string event, MouseEvent data)
void onKeyboardEvent(string key)
void placePawns()
void placeRooks()
void placeKnights()
void placeBishops()
void placeQueens()
void placeKings()
}
@enduml

PlantUML version 1.2022.13(Sat Nov 19 13:22:17 GMT 2022)
(GPL source distribution)
Java Runtime: OpenJDK Runtime Environment
JVM: OpenJDK 64-Bit Server VM
Default Encoding: UTF-8
Language: en
Country: GB
--></g></svg>