<?xml version="1.0" encoding="UTF-8" standalone="no"?><svg xmlns="http://www.w3.org/2000/svg" xmlns:xlink="http://www.w3.org/1999/xlink" contentStyleType="text/css" height="118px" preserveAspectRatio="none" style="width:172px;height:118px;background:#FFFFFF;" version="1.1" viewBox="0 0 172 118" width="172px" zoomAndPan="magnify"><defs/><g><!--MD5=[5655ee3e2a0d028d03fe20f829576392]
class Square--><g id="elem_Square"><rect codeLine="1" fill="#F1F1F1" height="97.4648" id="Square" rx="2.5" ry="2.5" style="stroke:#181818;stroke-width:0.5;" width="151" x="7" y="7"/><ellipse cx="54.25" cy="23" fill="#ADD1B2" rx="11" ry="11" style="stroke:#181818;stroke-width:1.0;"/><path d="M57.2231,28.6431 Q56.6421,28.9419 56.0029,29.0913 Q55.3638,29.2407 54.6582,29.2407 Q52.1514,29.2407 50.8315,27.5889 Q49.5117,25.937 49.5117,22.8159 Q49.5117,19.6865 50.8315,18.0347 Q52.1514,16.3828 54.6582,16.3828 Q55.3638,16.3828 56.0112,16.5322 Q56.6587,16.6816 57.2231,16.9805 L57.2231,19.7031 Q56.5923,19.1221 55.9988,18.8523 Q55.4053,18.5825 54.7744,18.5825 Q53.4297,18.5825 52.7449,19.6492 Q52.0601,20.7158 52.0601,22.8159 Q52.0601,24.9077 52.7449,25.9744 Q53.4297,27.041 54.7744,27.041 Q55.4053,27.041 55.9988,26.7712 Q56.5923,26.5015 57.2231,25.9204 Z " fill="#000000"/><text fill="#000000" font-family="sans-serif" font-size="14" lengthAdjust="spacing" textLength="48" x="74.75" y="28.291">Square</text><line style="stroke:#181818;stroke-width:0.5;" x1="8" x2="157" y1="39" y2="39"/><text fill="#000000" font-family="sans-serif" font-size="14" lengthAdjust="spacing" textLength="127" x="13" y="56.5352">string background</text><text fill="#000000" font-family="sans-serif" font-size="14" lengthAdjust="spacing" textLength="139" x="13" y="73.0234">boolean highlighted</text><text fill="#000000" font-family="sans-serif" font-size="14" lengthAdjust="spacing" textLength="75" x="13" y="89.5117">Piece piece</text><line style="stroke:#181818;stroke-width:0.5;" x1="8" x2="157" y1="96.4648" y2="96.4648"/></g><!--MD5=[b4da7e48a88ac4a879a6b5c21fb5e6a8]
@startuml
class Square {
string background
boolean highlighted
Piece piece
}
@enduml

PlantUML version 1.2022.13(Sat Nov 19 13:22:17 GMT 2022)
(GPL source distribution)
Java Runtime: OpenJDK Runtime Environment
JVM: OpenJDK 64-Bit Server VM
Default Encoding: UTF-8
Language: en
Country: GB
--></g></svg>