<?xml version="1.0" encoding="UTF-8" standalone="no"?><svg xmlns="http://www.w3.org/2000/svg" xmlns:xlink="http://www.w3.org/1999/xlink" contentStyleType="text/css" height="184px" preserveAspectRatio="none" style="width:302px;height:184px;background:#FFFFFF;" version="1.1" viewBox="0 0 302 184" width="302px" zoomAndPan="magnify"><defs/><g><!--MD5=[9563755d011c5cec7ec66dc53565a59e]
class Board--><g id="elem_Board"><rect codeLine="1" fill="#F1F1F1" height="163.418" id="Board" rx="2.5" ry="2.5" style="stroke:#181818;stroke-width:0.5;" width="281" x="7" y="7"/><ellipse cx="123.25" cy="23" fill="#ADD1B2" rx="11" ry="11" style="stroke:#181818;stroke-width:1.0;"/><path d="M126.2231,28.6431 Q125.6421,28.9419 125.0029,29.0913 Q124.3638,29.2407 123.6582,29.2407 Q121.1514,29.2407 119.8315,27.5889 Q118.5117,25.937 118.5117,22.8159 Q118.5117,19.6865 119.8315,18.0347 Q121.1514,16.3828 123.6582,16.3828 Q124.3638,16.3828 125.0112,16.5322 Q125.6587,16.6816 126.2231,16.9805 L126.2231,19.7031 Q125.5923,19.1221 124.9988,18.8523 Q124.4053,18.5825 123.7744,18.5825 Q122.4297,18.5825 121.7449,19.6492 Q121.0601,20.7158 121.0601,22.8159 Q121.0601,24.9077 121.7449,25.9744 Q122.4297,27.041 123.7744,27.041 Q124.4053,27.041 124.9988,26.7712 Q125.5923,26.5015 126.2231,25.9204 Z " fill="#000000"/><text fill="#000000" font-family="sans-serif" font-size="14" lengthAdjust="spacing" textLength="40" x="143.75" y="28.291">Board</text><line style="stroke:#181818;stroke-width:0.5;" x1="8" x2="287" y1="39" y2="39"/><text fill="#000000" font-family="sans-serif" font-size="14" lengthAdjust="spacing" textLength="113" x="13" y="56.5352">Squares squares</text><line style="stroke:#181818;stroke-width:0.5;" x1="8" x2="287" y1="63.4883" y2="63.4883"/><text fill="#000000" font-family="sans-serif" font-size="14" lengthAdjust="spacing" textLength="91" x="13" y="81.0234">void update()</text><text fill="#000000" font-family="sans-serif" font-size="14" lengthAdjust="spacing" textLength="91" x="13" y="97.5117">void display()</text><text fill="#000000" font-family="sans-serif" font-size="14" lengthAdjust="spacing" textLength="269" x="13" y="114">Square getSquare(Coordinate position)</text><text fill="#000000" font-family="sans-serif" font-size="14" lengthAdjust="spacing" textLength="245" x="13" y="130.4883">Piece?getPiece(Coordinate position)</text><text fill="#000000" font-family="sans-serif" font-size="14" lengthAdjust="spacing" textLength="266" x="13" y="146.9766">void removePiece(Coordinate position)</text><text fill="#000000" font-family="sans-serif" font-size="14" lengthAdjust="spacing" textLength="189" x="13" y="163.4648">void placePiece(Piece piece)</text></g><!--MD5=[287bb82a88d6ddb4e4427f2dfca94191]
@startuml
class Board {
Squares squares
void update()
void display()
Square getSquare(Coordinate position)
Piece?getPiece(Coordinate position)
void removePiece(Coordinate position)
void placePiece(Piece piece)
}
@enduml

PlantUML version 1.2022.13(Sat Nov 19 13:22:17 GMT 2022)
(GPL source distribution)
Java Runtime: OpenJDK Runtime Environment
JVM: OpenJDK 64-Bit Server VM
Default Encoding: UTF-8
Language: en
Country: GB
--></g></svg>