<?xml version="1.0" encoding="UTF-8" standalone="no"?><svg xmlns="http://www.w3.org/2000/svg" xmlns:xlink="http://www.w3.org/1999/xlink" contentStyleType="text/css" height="184px" preserveAspectRatio="none" style="width:250px;height:184px;background:#FFFFFF;" version="1.1" viewBox="0 0 250 184" width="250px" zoomAndPan="magnify"><defs/><g><!--MD5=[e05bacf3ff4416a0580578814d41bbf6]
class Piece--><g id="elem_Piece"><rect codeLine="1" fill="#F1F1F1" height="163.418" id="Piece" rx="2.5" ry="2.5" style="stroke:#181818;stroke-width:0.5;" width="229" x="7" y="7"/><ellipse cx="99.75" cy="23" fill="#ADD1B2" rx="11" ry="11" style="stroke:#181818;stroke-width:1.0;"/><path d="M102.7231,28.6431 Q102.1421,28.9419 101.5029,29.0913 Q100.8638,29.2407 100.1582,29.2407 Q97.6514,29.2407 96.3315,27.5889 Q95.0117,25.937 95.0117,22.8159 Q95.0117,19.6865 96.3315,18.0347 Q97.6514,16.3828 100.1582,16.3828 Q100.8638,16.3828 101.5112,16.5322 Q102.1587,16.6816 102.7231,16.9805 L102.7231,19.7031 Q102.0923,19.1221 101.4988,18.8523 Q100.9053,18.5825 100.2744,18.5825 Q98.9297,18.5825 98.2449,19.6492 Q97.5601,20.7158 97.5601,22.8159 Q97.5601,24.9077 98.2449,25.9744 Q98.9297,27.041 100.2744,27.041 Q100.9053,27.041 101.4988,26.7712 Q102.0923,26.5015 102.7231,25.9204 Z " fill="#000000"/><text fill="#000000" font-family="sans-serif" font-size="14" lengthAdjust="spacing" textLength="35" x="120.25" y="28.291">Piece</text><line style="stroke:#181818;stroke-width:0.5;" x1="8" x2="235" y1="39" y2="39"/><text fill="#000000" font-family="sans-serif" font-size="14" lengthAdjust="spacing" textLength="137" x="13" y="56.5352">Coordinate position</text><text fill="#000000" font-family="sans-serif" font-size="14" lengthAdjust="spacing" textLength="101" x="13" y="73.0234">PieceType type</text><text fill="#000000" font-family="sans-serif" font-size="14" lengthAdjust="spacing" textLength="98" x="13" y="89.5117">boolean taken</text><text fill="#000000" font-family="sans-serif" font-size="14" lengthAdjust="spacing" textLength="181" x="13" y="106">PlayerColour playerColour</text><text fill="#000000" font-family="sans-serif" font-size="14" lengthAdjust="spacing" textLength="215" x="13" y="122.4883">Array&lt;Coordinate&gt; validMoves</text><line style="stroke:#181818;stroke-width:0.5;" x1="8" x2="235" y1="129.4414" y2="129.4414"/><text fill="#000000" font-family="sans-serif" font-size="14" lengthAdjust="spacing" textLength="217" x="13" y="146.9766">void move(Coordinate position)</text><text fill="#000000" font-family="sans-serif" font-size="14" lengthAdjust="spacing" textLength="147" x="13" y="163.4648">void findValidMoves()</text></g><!--MD5=[e262dcfc6fb042afa49a3aef7fc9c6c6]
@startuml
class Piece {
Coordinate position
PieceType type
boolean taken
PlayerColour playerColour
Array<Coordinate> validMoves
void move(Coordinate position)
void findValidMoves()
}
@enduml

PlantUML version 1.2022.13(Sat Nov 19 13:22:17 GMT 2022)
(GPL source distribution)
Java Runtime: OpenJDK Runtime Environment
JVM: OpenJDK 64-Bit Server VM
Default Encoding: UTF-8
Language: en
Country: GB
--></g></svg>